<svg xmlns="http://www.w3.org/2000/svg" width="1600" height="1000" viewBox="0 0 1600 1000" role="img" aria-label="CalRay coach orbit visual">
  <defs>
    <linearGradient id="bg" x1="0" y1="0" x2="1" y2="1">
      <stop offset="0" stop-color="#061018"/>
      <stop offset=".28" stop-color="#102b4a"/>
      <stop offset=".58" stop-color="#3f22a8"/>
      <stop offset=".82" stop-color="#ff5f83"/>
      <stop offset="1" stop-color="#f7cb62"/>
    </linearGradient>
    <radialGradient id="aura" cx=".48" cy=".42" r=".48">
      <stop offset="0" stop-color="#2ff3da" stop-opacity=".8"/>
      <stop offset="1" stop-color="#2ff3da" stop-opacity="0"/>
    </radialGradient>
    <filter id="shadow" x="-20%" y="-20%" width="140%" height="140%">
      <feDropShadow dx="0" dy="34" stdDeviation="38" flood-color="#010009" flood-opacity=".56"/>
    </filter>
  </defs>
  <rect width="1600" height="1000" fill="url(#bg)"/>
  <rect width="1600" height="1000" fill="url(#aura)"/>
  <g opacity=".24" fill="none" stroke="#fff" stroke-width="2">
    <ellipse cx="800" cy="500" rx="540" ry="220"/>
    <ellipse cx="800" cy="500" rx="430" ry="320" transform="rotate(-20 800 500)"/>
    <ellipse cx="800" cy="500" rx="430" ry="320" transform="rotate(20 800 500)"/>
  </g>
  <g filter="url(#shadow)">
    <circle cx="800" cy="500" r="218" fill="#07041a" opacity=".94"/>
    <circle cx="800" cy="500" r="164" fill="#ffffff" opacity=".1"/>
    <circle cx="800" cy="438" r="70" fill="#f8fbff"/>
    <path d="M664 648c26-90 84-134 136-134s110 44 136 134c-74 54-198 54-272 0Z" fill="#f8fbff"/>
    <circle cx="772" cy="430" r="8" fill="#12142a"/>
    <circle cx="828" cy="430" r="8" fill="#12142a"/>
    <path d="M770 462c24 20 48 20 72 0" fill="none" stroke="#ff6b8d" stroke-width="8" stroke-linecap="round"/>
    <rect x="286" y="222" width="318" height="116" rx="34" fill="#ffffff" opacity=".13"/>
    <text x="324" y="270" fill="#ffffff" font-family="Inter, Arial" font-size="28" font-weight="800">today</text>
    <text x="324" y="310" fill="#dffcff" font-family="Inter, Arial" font-size="22">walk after lunch</text>
    <rect x="1016" y="212" width="332" height="124" rx="34" fill="#ffffff" opacity=".13"/>
    <text x="1054" y="262" fill="#ffffff" font-family="Inter, Arial" font-size="28" font-weight="800">coach</text>
    <text x="1054" y="304" fill="#dffcff" font-family="Inter, Arial" font-size="22">protein needs 18g</text>
    <rect x="1048" y="662" width="286" height="116" rx="34" fill="#ffffff" opacity=".13"/>
    <text x="1086" y="710" fill="#ffffff" font-family="Inter, Arial" font-size="28" font-weight="800">sleep</text>
    <text x="1086" y="750" fill="#dffcff" font-family="Inter, Arial" font-size="22">lighter dinner idea</text>
    <rect x="248" y="638" width="340" height="132" rx="34" fill="#ffffff" opacity=".13"/>
    <text x="286" y="690" fill="#ffffff" font-family="Inter, Arial" font-size="28" font-weight="800">progress</text>
    <text x="286" y="732" fill="#dffcff" font-family="Inter, Arial" font-size="22">5 day streak alive</text>
  </g>
</svg>
