<svg xmlns="http://www.w3.org/2000/svg" width="1600" height="1000" viewBox="0 0 1600 1000" role="img" aria-label="CalRay barcode lab visual">
  <defs>
    <linearGradient id="bg" x1="0" y1="0" x2="1" y2="1">
      <stop offset="0" stop-color="#060511"/>
      <stop offset=".3" stop-color="#14304d"/>
      <stop offset=".58" stop-color="#0b8a8f"/>
      <stop offset=".83" stop-color="#b73eff"/>
      <stop offset="1" stop-color="#ff625b"/>
    </linearGradient>
    <radialGradient id="beam" cx=".5" cy=".3" r=".58">
      <stop offset="0" stop-color="#ffffff" stop-opacity=".42"/>
      <stop offset="1" stop-color="#ffffff" stop-opacity="0"/>
    </radialGradient>
    <filter id="shadow" x="-20%" y="-20%" width="140%" height="140%">
      <feDropShadow dx="0" dy="34" stdDeviation="38" flood-color="#010007" flood-opacity=".55"/>
    </filter>
  </defs>
  <rect width="1600" height="1000" fill="url(#bg)"/>
  <rect width="1600" height="1000" fill="url(#beam)"/>
  <g opacity=".2" stroke="#fff" stroke-width="1">
    <path d="M0 210h1600M0 420h1600M0 630h1600M0 840h1600"/>
    <path d="M220 0v1000M440 0v1000M660 0v1000M880 0v1000M1100 0v1000M1320 0v1000"/>
  </g>
  <g filter="url(#shadow)">
    <rect x="246" y="158" width="1108" height="684" rx="64" fill="#07041a" opacity=".9"/>
    <rect x="342" y="254" width="396" height="492" rx="44" fill="#ffffff" opacity=".11"/>
    <rect x="398" y="330" width="22" height="282" rx="10" fill="#fff"/>
    <rect x="440" y="330" width="12" height="282" rx="6" fill="#fff"/>
    <rect x="476" y="330" width="36" height="282" rx="12" fill="#fff"/>
    <rect x="536" y="330" width="16" height="282" rx="8" fill="#fff"/>
    <rect x="580" y="330" width="44" height="282" rx="12" fill="#fff"/>
    <rect x="648" y="330" width="18" height="282" rx="9" fill="#fff"/>
    <path d="M330 500h430" stroke="#2ff3da" stroke-width="16" stroke-linecap="round"/>
    <circle cx="540" cy="500" r="148" fill="#2ff3da" opacity=".16"/>
    <g transform="translate(832 254)">
      <text x="0" y="0" fill="#ffffff" font-family="Inter, Arial" font-size="38" font-weight="800">barcode lab</text>
      <text x="0" y="50" fill="#dffcff" font-family="Inter, Arial" font-size="24">Instant lookup, clean macro memory.</text>
      <rect x="0" y="110" width="362" height="92" rx="28" fill="#ffffff" opacity=".13"/>
      <text x="30" y="166" fill="#ffffff" font-family="Inter, Arial" font-size="28" font-weight="800">matched food</text>
      <rect x="0" y="238" width="452" height="92" rx="28" fill="#ffffff" opacity=".13"/>
      <text x="30" y="294" fill="#ffffff" font-family="Inter, Arial" font-size="28" font-weight="800">serving adjusted</text>
      <rect x="0" y="366" width="310" height="92" rx="28" fill="#ffffff" opacity=".13"/>
      <text x="30" y="422" fill="#ffffff" font-family="Inter, Arial" font-size="28" font-weight="800">saved meal</text>
    </g>
  </g>
</svg>
