<svg xmlns="http://www.w3.org/2000/svg" width="1600" height="1000" viewBox="0 0 1600 1000" role="img" aria-label="CalRay macro lens visual">
  <defs>
    <linearGradient id="bg" x1="0" y1="1" x2="1" y2="0">
      <stop offset="0" stop-color="#05030c"/>
      <stop offset=".25" stop-color="#18294f"/>
      <stop offset=".55" stop-color="#0c7f84"/>
      <stop offset=".78" stop-color="#8d4bff"/>
      <stop offset="1" stop-color="#ff557d"/>
    </linearGradient>
    <radialGradient id="glow" cx=".52" cy=".45" r=".45">
      <stop offset="0" stop-color="#ffffff" stop-opacity=".42"/>
      <stop offset="1" stop-color="#ffffff" stop-opacity="0"/>
    </radialGradient>
    <filter id="shadow" x="-20%" y="-20%" width="140%" height="140%">
      <feDropShadow dx="0" dy="34" stdDeviation="36" flood-color="#020008" flood-opacity=".52"/>
    </filter>
  </defs>
  <rect width="1600" height="1000" fill="url(#bg)"/>
  <rect width="1600" height="1000" fill="url(#glow)"/>
  <g opacity=".18" stroke="#fff" stroke-width="2">
    <circle cx="800" cy="500" r="420"/>
    <circle cx="800" cy="500" r="300"/>
    <circle cx="800" cy="500" r="178"/>
  </g>
  <g filter="url(#shadow)">
    <rect x="244" y="156" width="1112" height="688" rx="70" fill="#09051d" opacity=".88"/>
    <rect x="316" y="228" width="402" height="544" rx="54" fill="#ffffff" opacity=".1"/>
    <circle cx="518" cy="428" r="142" fill="#0ad9e7" opacity=".22"/>
    <path d="M407 465c44-98 124-138 244-92-34 98-106 138-220 118-12-2-20-11-24-26Z" fill="#f7fbff"/>
    <circle cx="570" cy="384" r="13" fill="#16112d"/>
    <path d="M440 470c48 26 99 30 150 12" fill="none" stroke="#ff9e42" stroke-width="12" stroke-linecap="round"/>
    <g transform="translate(806 246)">
      <text x="0" y="0" fill="#ffffff" font-family="Inter, Arial" font-size="32" font-weight="800">macro lens</text>
      <text x="0" y="48" fill="#dffcff" font-family="Inter, Arial" font-size="21">AI estimates you can trust, then edit.</text>
      <g transform="translate(0 96)">
        <rect width="398" height="64" rx="32" fill="#ffffff" opacity=".12"/>
        <rect width="314" height="64" rx="32" fill="#2ff3da" opacity=".9"/>
        <text x="24" y="41" fill="#07101a" font-family="Inter, Arial" font-size="24" font-weight="800">protein 78%</text>
      </g>
      <g transform="translate(0 198)">
        <rect width="398" height="64" rx="32" fill="#ffffff" opacity=".12"/>
        <rect width="228" height="64" rx="32" fill="#ffcf52" opacity=".9"/>
        <text x="24" y="41" fill="#16100a" font-family="Inter, Arial" font-size="24" font-weight="800">carbs 56%</text>
      </g>
      <g transform="translate(0 300)">
        <rect width="398" height="64" rx="32" fill="#ffffff" opacity=".12"/>
        <rect width="162" height="64" rx="32" fill="#ff5e8b" opacity=".92"/>
        <text x="24" y="41" fill="#ffffff" font-family="Inter, Arial" font-size="24" font-weight="800">fat 39%</text>
      </g>
      <rect x="0" y="424" width="270" height="62" rx="31" fill="#ffffff" opacity=".15"/>
      <text x="28" y="464" fill="#ffffff" font-family="Inter, Arial" font-size="24" font-weight="800">calorie target calm</text>
    </g>
  </g>
</svg>
