<svg xmlns="http://www.w3.org/2000/svg" width="1600" height="1000" viewBox="0 0 1600 1000" role="img" aria-label="CalRay meal scan visual">
  <defs>
    <linearGradient id="bg" x1="0" y1="0" x2="1" y2="1">
      <stop offset="0" stop-color="#07030f"/>
      <stop offset=".32" stop-color="#19124a"/>
      <stop offset=".62" stop-color="#0b6a78"/>
      <stop offset="1" stop-color="#f7b84b"/>
    </linearGradient>
    <radialGradient id="halo" cx=".42" cy=".3" r=".6">
      <stop offset="0" stop-color="#7af7ff" stop-opacity=".9"/>
      <stop offset="1" stop-color="#7af7ff" stop-opacity="0"/>
    </radialGradient>
    <radialGradient id="warm" cx=".74" cy=".72" r=".5">
      <stop offset="0" stop-color="#ff6b8d" stop-opacity=".78"/>
      <stop offset="1" stop-color="#ff6b8d" stop-opacity="0"/>
    </radialGradient>
    <filter id="shadow" x="-20%" y="-20%" width="140%" height="140%">
      <feDropShadow dx="0" dy="32" stdDeviation="34" flood-color="#020008" flood-opacity=".5"/>
    </filter>
    <filter id="blur" x="-20%" y="-20%" width="140%" height="140%">
      <feGaussianBlur stdDeviation="18"/>
    </filter>
  </defs>
  <rect width="1600" height="1000" fill="url(#bg)"/>
  <rect width="1600" height="1000" fill="url(#halo)"/>
  <rect width="1600" height="1000" fill="url(#warm)"/>
  <g opacity=".22" stroke="#fff" stroke-width="1">
    <path d="M0 180h1600M0 360h1600M0 540h1600M0 720h1600M0 900h1600"/>
    <path d="M160 0v1000M320 0v1000M480 0v1000M640 0v1000M800 0v1000M960 0v1000M1120 0v1000M1280 0v1000M1440 0v1000"/>
  </g>
  <ellipse cx="780" cy="780" rx="560" ry="90" fill="#05020d" opacity=".58" filter="url(#blur)"/>
  <g filter="url(#shadow)">
    <rect x="246" y="138" width="1108" height="724" rx="58" fill="#09051d" opacity=".92"/>
    <rect x="292" y="186" width="1016" height="628" rx="40" fill="#f8fbff" opacity=".08"/>
    <rect x="334" y="232" width="496" height="496" rx="42" fill="#ffffff" opacity=".1"/>
    <circle cx="582" cy="480" r="176" fill="#ffffff" opacity=".09"/>
    <circle cx="582" cy="480" r="118" fill="#7af7ff" opacity=".22"/>
    <path d="M390 544c56-120 160-168 314-110-42 118-136 166-280 142-18-3-28-15-34-32Z" fill="#f6fbff"/>
    <circle cx="626" cy="438" r="18" fill="#111232"/>
    <path d="M422 554c72 36 144 42 216 18" fill="none" stroke="#ff8651" stroke-width="16" stroke-linecap="round"/>
    <path d="M474 610c58 12 108 8 150-12" fill="none" stroke="#31d6a3" stroke-width="12" stroke-linecap="round"/>
    <rect x="920" y="250" width="306" height="92" rx="28" fill="#7af7ff" opacity=".18"/>
    <rect x="920" y="386" width="306" height="92" rx="28" fill="#ff6b8d" opacity=".16"/>
    <rect x="920" y="522" width="306" height="92" rx="28" fill="#f7b84b" opacity=".18"/>
    <rect x="920" y="658" width="216" height="42" rx="21" fill="#ffffff" opacity=".18"/>
    <text x="370" y="278" fill="#ffffff" font-family="Inter, Arial" font-size="34" font-weight="800">meal photo scan</text>
    <text x="952" y="306" fill="#ffffff" font-family="Inter, Arial" font-size="34" font-weight="800">612 kcal</text>
    <text x="952" y="442" fill="#ffffff" font-family="Inter, Arial" font-size="34" font-weight="800">42g protein</text>
    <text x="952" y="578" fill="#ffffff" font-family="Inter, Arial" font-size="34" font-weight="800">8s logged</text>
    <text x="952" y="695" fill="#dffcff" font-family="Inter, Arial" font-size="22" font-weight="700">CalRay confirmed</text>
  </g>
</svg>
