<svg width="500" height="500" viewBox="0 0 500 500" fill="none" xmlns="http://www.w3.org/2000/svg">
<path d="M357.407 205.505C356.901 194.028 355.045 186.138 352.386 179.3C349.644 172.043 345.424 165.546 339.896 160.144C334.494 154.659 327.954 150.396 320.781 147.696C313.904 145.038 306.055 143.182 294.578 142.676C283.015 142.127 279.345 142 250.019 142C220.692 142 217.022 142.127 205.502 142.633C194.025 143.139 186.135 144.997 179.299 147.654C172.04 150.396 165.543 154.616 160.141 160.144C154.656 165.546 150.395 172.086 147.694 179.259C145.035 186.138 143.179 193.985 142.673 205.462C142.124 217.025 141.997 220.695 141.997 250.021C141.997 279.348 142.124 283.018 142.63 294.538C143.136 306.015 144.994 313.905 147.652 320.742C150.395 328 154.656 334.497 160.141 339.899C165.543 345.384 172.083 349.647 179.256 352.346C186.135 355.005 193.982 356.861 205.461 357.367C216.979 357.875 220.651 358 249.977 358C279.303 358 282.974 357.875 294.494 357.367C305.971 356.861 313.861 355.005 320.697 352.346C335.213 346.734 346.69 335.257 352.302 320.742C354.959 313.864 356.817 306.015 357.323 294.538C357.829 283.018 357.956 279.348 357.956 250.021C357.956 220.695 357.913 217.025 357.407 205.505ZM337.956 293.694C337.491 304.243 335.719 309.94 334.242 313.737C330.613 323.147 323.144 330.616 313.734 334.245C309.937 335.722 304.199 337.494 293.691 337.957C282.298 338.465 278.881 338.59 250.061 338.59C221.241 338.59 217.782 338.465 206.43 337.957C195.881 337.494 190.184 335.722 186.387 334.245C181.704 332.514 177.442 329.772 173.982 326.185C170.395 322.682 167.652 318.463 165.922 313.78C164.445 309.982 162.673 304.243 162.21 293.737C161.702 282.344 161.577 278.926 161.577 250.105C161.577 221.285 161.702 217.826 162.21 206.476C162.673 195.927 164.445 190.23 165.922 186.433C167.652 181.748 170.395 177.487 174.025 174.026C177.526 170.439 181.745 167.697 186.43 165.968C190.227 164.491 195.967 162.719 206.473 162.254C217.866 161.748 221.284 161.621 250.103 161.621C278.966 161.621 282.382 161.748 293.734 162.254C304.283 162.719 309.979 164.491 313.777 165.968C318.46 167.697 322.722 170.439 326.182 174.026C329.769 177.529 332.511 181.748 334.242 186.433C335.719 190.23 337.491 195.968 337.956 206.476C338.462 217.869 338.589 221.285 338.589 250.105C338.589 278.926 338.462 282.301 337.956 293.694Z" fill="#20174E"/>
<path d="M250.018 194.531C219.385 194.531 194.53 219.384 194.53 250.019C194.53 280.654 219.385 305.506 250.018 305.506C280.653 305.506 305.505 280.654 305.505 250.019C305.505 219.384 280.653 194.531 250.018 194.531ZM250.018 286.012C230.145 286.012 214.024 269.894 214.024 250.019C214.024 230.144 230.145 214.025 250.018 214.025C269.893 214.025 286.011 230.144 286.011 250.019C286.011 269.894 269.893 286.012 250.018 286.012Z" fill="#20174E"/>
<path d="M320.655 192.341C320.655 199.494 314.855 205.294 307.7 205.294C300.546 205.294 294.746 199.494 294.746 192.341C294.746 185.185 300.546 179.387 307.7 179.387C314.855 179.387 320.655 185.185 320.655 192.341Z" fill="#20174E"/>
</svg>
