<svg width="500" height="500" viewBox="0 0 500 500" fill="none" xmlns="http://www.w3.org/2000/svg">
<path d="M356 335.994V265.675C356 231.115 348.56 204.715 308.24 204.715C288.8 204.715 275.84 215.275 270.56 225.355H270.08V207.835H231.92V335.994H271.76V272.395C271.76 255.595 274.88 239.515 295.52 239.515C315.92 239.515 316.16 258.475 316.16 273.355V335.754H356V335.994Z" fill="#20174E"/>
<path d="M167.121 207.84H206.961V336H167.121V207.84Z" fill="#20174E"/>
<path d="M187.04 144C174.32 144 164 154.32 164 167.04C164 179.76 174.32 190.32 187.04 190.32C199.76 190.32 210.08 179.76 210.08 167.04C210.08 154.32 199.76 144 187.04 144Z" fill="#20174E"/>
</svg>
