<svg width="500" height="500" viewBox="0 0 500 500" fill="none" xmlns="http://www.w3.org/2000/svg">
<path d="M330.939 175.477C315.961 168.605 299.899 163.541 283.105 160.641C282.8 160.585 282.494 160.725 282.336 161.005C280.271 164.679 277.983 169.471 276.38 173.239C258.318 170.534 240.348 170.534 222.656 173.239C221.053 169.388 218.682 164.679 216.607 161.005C216.449 160.734 216.144 160.594 215.838 160.641C199.054 163.532 182.992 168.595 168.004 175.477C167.875 175.533 167.764 175.626 167.69 175.748C137.224 221.263 128.878 265.659 132.972 309.505C132.99 309.719 133.111 309.925 133.278 310.055C153.378 324.816 172.849 333.778 191.958 339.718C192.264 339.811 192.588 339.699 192.782 339.447C197.302 333.275 201.332 326.766 204.787 319.921C204.99 319.52 204.796 319.045 204.379 318.886C197.988 316.462 191.902 313.505 186.048 310.149C185.584 309.878 185.547 309.216 185.974 308.899C187.206 307.976 188.438 307.015 189.614 306.045C189.827 305.868 190.124 305.831 190.374 305.943C228.833 323.502 270.47 323.502 308.475 305.943C308.725 305.821 309.022 305.859 309.244 306.036C310.421 307.006 311.653 307.975 312.894 308.898C313.32 309.216 313.292 309.878 312.829 310.148C306.975 313.57 300.889 316.461 294.489 318.876C294.072 319.035 293.886 319.52 294.091 319.92C297.62 326.756 301.649 333.264 306.086 339.438C306.271 339.699 306.604 339.811 306.91 339.717C326.112 333.778 345.583 324.816 365.683 310.055C365.859 309.924 365.97 309.728 365.989 309.514C370.889 258.823 357.781 214.791 331.243 175.756C331.179 175.626 331.068 175.533 330.939 175.477ZM210.531 282.807C198.952 282.807 189.411 272.177 189.411 259.122C189.411 246.067 198.766 235.437 210.531 235.437C222.387 235.437 231.835 246.16 231.65 259.122C231.65 272.177 222.294 282.807 210.531 282.807ZM288.616 282.807C277.038 282.807 267.497 272.177 267.497 259.122C267.497 246.067 276.853 235.437 288.616 235.437C300.473 235.437 309.921 246.16 309.736 259.122C309.736 272.177 300.473 282.807 288.616 282.807Z" fill="#20174E"/>
</svg>
