<svg width="500" height="500" viewBox="0 0 500 500" fill="none" xmlns="http://www.w3.org/2000/svg">
<path d="M330.938 175.477C315.96 168.605 299.899 163.541 283.105 160.641C282.799 160.585 282.493 160.725 282.336 161.005C280.27 164.679 277.982 169.471 276.38 173.239C258.317 170.534 240.347 170.534 222.655 173.239C221.052 169.388 218.681 164.679 216.606 161.005C216.449 160.734 216.143 160.594 215.837 160.641C199.053 163.532 182.992 168.595 168.004 175.477C167.874 175.533 167.763 175.626 167.689 175.748C137.224 221.263 128.877 265.659 132.972 309.505C132.99 309.72 133.111 309.925 133.277 310.055C153.378 324.816 172.849 333.778 191.957 339.718C192.263 339.811 192.587 339.699 192.782 339.447C197.302 333.275 201.331 326.766 204.786 319.921C204.99 319.52 204.795 319.045 204.378 318.886C197.987 316.462 191.901 313.505 186.047 310.149C185.584 309.878 185.547 309.216 185.973 308.899C187.205 307.976 188.437 307.015 189.614 306.045C189.827 305.868 190.123 305.831 190.373 305.943C228.833 323.502 270.469 323.502 308.475 305.943C308.725 305.821 309.021 305.859 309.243 306.036C310.42 307.006 311.652 307.975 312.893 308.898C313.319 309.216 313.291 309.878 312.829 310.148C306.974 313.57 300.889 316.461 294.488 318.876C294.071 319.035 293.886 319.52 294.09 319.92C297.619 326.756 301.649 333.264 306.085 339.438C306.271 339.699 306.604 339.811 306.91 339.717C326.111 333.778 345.582 324.816 365.682 310.055C365.859 309.924 365.97 309.728 365.988 309.514C370.888 258.823 357.781 214.791 331.243 175.756C331.179 175.626 331.068 175.533 330.938 175.477ZM210.53 282.807C198.951 282.807 189.411 272.177 189.411 259.122C189.411 246.067 198.766 235.437 210.53 235.437C222.386 235.437 231.835 246.16 231.649 259.122C231.649 272.177 222.294 282.807 210.53 282.807ZM288.616 282.807C277.037 282.807 267.497 272.177 267.497 259.122C267.497 246.067 276.852 235.437 288.616 235.437C300.472 235.437 309.92 246.16 309.735 259.122C309.735 272.177 300.473 282.807 288.616 282.807Z" fill="white"/>
</svg>
