<svg width="1952" height="418" viewBox="0 0 1952 418" fill="none" xmlns="http://www.w3.org/2000/svg">
<path d="M539.983 237.168C539.983 262.218 531.285 283.466 513.888 300.912C496.715 318.134 475.638 326.745 450.659 326.745C434.6 326.745 419.769 322.831 406.164 315.003V418H361V237.168C361 211.894 369.587 190.646 386.76 173.424C404.157 156.201 425.456 147.59 450.659 147.59C475.638 147.59 496.715 156.313 513.888 173.759C531.285 190.981 539.983 212.117 539.983 237.168ZM494.819 237.168C494.819 224.866 490.47 214.466 481.772 205.967C473.296 197.244 462.926 192.882 450.659 192.882C438.392 192.882 427.91 197.244 419.211 205.967C410.513 214.466 406.164 224.866 406.164 237.168C406.164 249.469 410.513 259.981 419.211 268.704C427.91 277.204 438.392 281.453 450.659 281.453C462.926 281.453 473.296 277.204 481.772 268.704C490.47 259.981 494.819 249.469 494.819 237.168ZM725.161 236.832C725.161 241.306 724.826 245.779 724.157 250.252H593.349C596.248 259.646 601.601 267.251 609.407 273.066C617.213 278.657 626.023 281.453 635.836 281.453C649.441 281.453 660.705 276.197 669.626 265.685L697.059 302.254C679.885 318.581 659.478 326.745 635.836 326.745C610.634 326.745 589.334 318.134 571.938 300.912C554.764 283.466 546.177 262.106 546.177 236.832C546.177 211.782 554.876 190.646 572.272 173.424C589.669 155.978 610.857 147.255 635.836 147.255C660.816 147.255 681.893 155.978 699.066 173.424C716.462 190.646 725.161 211.782 725.161 236.832ZM674.644 216.367C666.392 200.487 653.456 192.547 635.836 192.547C617.994 192.547 604.946 200.487 596.694 216.367H674.644ZM947.457 321.713H899.616L889.914 295.544C872.072 316.568 849.323 327.081 821.667 327.081C796.687 327.081 775.499 318.358 758.103 300.912C740.929 283.466 732.342 262.33 732.342 237.503C732.342 218.492 737.695 201.382 748.401 186.172C759.106 170.74 773.38 159.78 791.223 153.294C801.705 149.492 811.965 147.59 822.001 147.59C840.959 147.59 858.021 153.07 873.187 164.03C888.576 174.766 899.505 189.08 905.973 206.973L947.457 321.713ZM866.161 237.503C866.161 221.847 859.805 209.657 847.092 200.934C839.732 195.79 831.257 193.218 821.667 193.218C806.054 193.218 794.011 199.48 785.535 212.006C780.183 219.834 777.506 228.333 777.506 237.503C777.506 252.936 783.863 265.014 796.576 273.737C804.382 279.105 812.745 281.789 821.667 281.789C833.933 281.789 844.416 277.539 853.114 269.04C861.812 260.317 866.161 249.805 866.161 237.503ZM1082.23 301.583C1064.84 318.358 1044.21 326.745 1020.34 326.745C995.141 326.745 973.841 318.134 956.445 300.912C939.271 283.466 930.685 262.106 930.685 236.832C930.685 211.782 939.383 190.646 956.779 173.424C974.176 155.978 995.364 147.255 1020.34 147.255C1043.09 147.255 1062.94 154.971 1079.89 170.404L1052.79 206.973C1044.1 197.356 1033.28 192.547 1020.34 192.547C1008.08 192.547 997.594 196.908 988.896 205.631C980.198 214.13 975.848 224.531 975.848 236.832C975.848 249.134 980.198 259.646 988.896 268.369C997.594 277.092 1008.08 281.453 1020.34 281.453C1033.73 281.453 1044.77 276.309 1053.46 266.02L1082.23 301.583ZM1267.08 321.713H1221.92L1221.58 236.832C1221.58 224.754 1217.24 214.354 1208.54 205.631C1199.84 196.908 1189.47 192.547 1177.42 192.547C1165.16 192.547 1154.68 196.908 1145.98 205.631C1137.28 214.13 1132.93 224.531 1132.93 236.832V321.713H1087.77V56H1132.93V158.997C1146.76 151.169 1161.59 147.255 1177.42 147.255C1202.4 147.255 1223.59 155.978 1240.99 173.424C1258.39 190.646 1267.08 211.782 1267.08 236.832V321.713ZM1580.71 237.168C1580.71 262.442 1572.01 283.802 1554.62 301.247C1537.44 318.47 1516.25 327.081 1491.05 327.081C1466.3 327.081 1445.11 318.134 1427.49 300.241C1409.87 318.134 1388.68 327.081 1363.92 327.081C1338.72 327.081 1317.42 318.47 1300.03 301.247C1282.85 283.802 1274.26 262.442 1274.26 237.168V147.59H1319.43V237.168C1319.43 249.469 1323.78 259.981 1332.48 268.704C1341.17 277.427 1351.66 281.789 1363.92 281.789C1376.19 281.789 1386.56 277.427 1395.04 268.704C1403.73 259.981 1408.08 249.469 1408.08 237.168L1408.42 147.59H1453.58V260.317H1453.25C1461.95 274.631 1474.55 281.789 1491.05 281.789C1503.32 281.789 1513.69 277.427 1522.16 268.704C1530.86 259.981 1535.21 249.469 1535.21 237.168L1535.55 147.59H1580.71V237.168ZM1766.17 236.832C1766.17 241.306 1765.83 245.779 1765.16 250.252H1634.36C1637.25 259.646 1642.61 267.251 1650.41 273.066C1658.22 278.657 1667.03 281.453 1676.84 281.453C1690.45 281.453 1701.71 276.197 1710.63 265.685L1738.07 302.254C1720.89 318.581 1700.48 326.745 1676.84 326.745C1651.64 326.745 1630.34 318.134 1612.94 300.912C1595.77 283.466 1587.18 262.106 1587.18 236.832C1587.18 211.782 1595.88 190.646 1613.28 173.424C1630.68 155.978 1651.86 147.255 1676.84 147.255C1701.82 147.255 1722.9 155.978 1740.07 173.424C1757.47 190.646 1766.17 211.782 1766.17 236.832ZM1715.65 216.367C1707.4 200.487 1694.46 192.547 1676.84 192.547C1659 192.547 1645.95 200.487 1637.7 216.367H1715.65ZM1952 236.832C1952 261.883 1943.3 283.131 1925.91 300.576C1908.73 318.022 1887.66 326.745 1862.68 326.745C1837.47 326.745 1816.17 318.134 1798.78 300.912C1781.6 283.466 1773.02 262.106 1773.02 236.832V56H1818.18V158.997C1831.79 151.169 1846.62 147.255 1862.68 147.255C1887.66 147.255 1908.73 155.978 1925.91 173.424C1943.3 190.646 1952 211.782 1952 236.832ZM1906.84 236.832C1906.84 224.754 1902.49 214.354 1893.79 205.631C1885.09 196.908 1874.72 192.547 1862.68 192.547C1850.41 192.547 1839.93 196.908 1831.23 205.631C1822.53 214.13 1818.18 224.531 1818.18 236.832C1818.18 249.134 1822.53 259.646 1831.23 268.369C1839.93 277.092 1850.41 281.453 1862.68 281.453C1874.94 281.453 1885.31 277.092 1893.79 268.369C1902.49 259.646 1906.84 249.134 1906.84 236.832Z" fill="url(#paint0_linear_205_273)"/>
<path d="M539.983 237.168C539.983 262.218 531.285 283.466 513.888 300.912C496.715 318.134 475.638 326.745 450.659 326.745C434.6 326.745 419.769 322.831 406.164 315.003V418H361V237.168C361 211.894 369.587 190.646 386.76 173.424C404.157 156.201 425.456 147.59 450.659 147.59C475.638 147.59 496.715 156.313 513.888 173.759C531.285 190.981 539.983 212.117 539.983 237.168ZM494.819 237.168C494.819 224.866 490.47 214.466 481.772 205.967C473.296 197.244 462.926 192.882 450.659 192.882C438.392 192.882 427.91 197.244 419.211 205.967C410.513 214.466 406.164 224.866 406.164 237.168C406.164 249.469 410.513 259.981 419.211 268.704C427.91 277.204 438.392 281.453 450.659 281.453C462.926 281.453 473.296 277.204 481.772 268.704C490.47 259.981 494.819 249.469 494.819 237.168ZM725.161 236.832C725.161 241.306 724.826 245.779 724.157 250.252H593.349C596.248 259.646 601.601 267.251 609.407 273.066C617.213 278.657 626.023 281.453 635.836 281.453C649.441 281.453 660.705 276.197 669.626 265.685L697.059 302.254C679.885 318.581 659.478 326.745 635.836 326.745C610.634 326.745 589.334 318.134 571.938 300.912C554.764 283.466 546.177 262.106 546.177 236.832C546.177 211.782 554.876 190.646 572.272 173.424C589.669 155.978 610.857 147.255 635.836 147.255C660.816 147.255 681.893 155.978 699.066 173.424C716.462 190.646 725.161 211.782 725.161 236.832ZM674.644 216.367C666.392 200.487 653.456 192.547 635.836 192.547C617.994 192.547 604.946 200.487 596.694 216.367H674.644ZM947.457 321.713H899.616L889.914 295.544C872.072 316.568 849.323 327.081 821.667 327.081C796.687 327.081 775.499 318.358 758.103 300.912C740.929 283.466 732.342 262.33 732.342 237.503C732.342 218.492 737.695 201.382 748.401 186.172C759.106 170.74 773.38 159.78 791.223 153.294C801.705 149.492 811.965 147.59 822.001 147.59C840.959 147.59 858.021 153.07 873.187 164.03C888.576 174.766 899.505 189.08 905.973 206.973L947.457 321.713ZM866.161 237.503C866.161 221.847 859.805 209.657 847.092 200.934C839.732 195.79 831.257 193.218 821.667 193.218C806.054 193.218 794.011 199.48 785.535 212.006C780.183 219.834 777.506 228.333 777.506 237.503C777.506 252.936 783.863 265.014 796.576 273.737C804.382 279.105 812.745 281.789 821.667 281.789C833.933 281.789 844.416 277.539 853.114 269.04C861.812 260.317 866.161 249.805 866.161 237.503ZM1082.23 301.583C1064.84 318.358 1044.21 326.745 1020.34 326.745C995.141 326.745 973.841 318.134 956.445 300.912C939.271 283.466 930.685 262.106 930.685 236.832C930.685 211.782 939.383 190.646 956.779 173.424C974.176 155.978 995.364 147.255 1020.34 147.255C1043.09 147.255 1062.94 154.971 1079.89 170.404L1052.79 206.973C1044.1 197.356 1033.28 192.547 1020.34 192.547C1008.08 192.547 997.594 196.908 988.896 205.631C980.198 214.13 975.848 224.531 975.848 236.832C975.848 249.134 980.198 259.646 988.896 268.369C997.594 277.092 1008.08 281.453 1020.34 281.453C1033.73 281.453 1044.77 276.309 1053.46 266.02L1082.23 301.583ZM1267.08 321.713H1221.92L1221.58 236.832C1221.58 224.754 1217.24 214.354 1208.54 205.631C1199.84 196.908 1189.47 192.547 1177.42 192.547C1165.16 192.547 1154.68 196.908 1145.98 205.631C1137.28 214.13 1132.93 224.531 1132.93 236.832V321.713H1087.77V56H1132.93V158.997C1146.76 151.169 1161.59 147.255 1177.42 147.255C1202.4 147.255 1223.59 155.978 1240.99 173.424C1258.39 190.646 1267.08 211.782 1267.08 236.832V321.713ZM1580.71 237.168C1580.71 262.442 1572.01 283.802 1554.62 301.247C1537.44 318.47 1516.25 327.081 1491.05 327.081C1466.3 327.081 1445.11 318.134 1427.49 300.241C1409.87 318.134 1388.68 327.081 1363.92 327.081C1338.72 327.081 1317.42 318.47 1300.03 301.247C1282.85 283.802 1274.26 262.442 1274.26 237.168V147.59H1319.43V237.168C1319.43 249.469 1323.78 259.981 1332.48 268.704C1341.17 277.427 1351.66 281.789 1363.92 281.789C1376.19 281.789 1386.56 277.427 1395.04 268.704C1403.73 259.981 1408.08 249.469 1408.08 237.168L1408.42 147.59H1453.58V260.317H1453.25C1461.95 274.631 1474.55 281.789 1491.05 281.789C1503.32 281.789 1513.69 277.427 1522.16 268.704C1530.86 259.981 1535.21 249.469 1535.21 237.168L1535.55 147.59H1580.71V237.168ZM1766.17 236.832C1766.17 241.306 1765.83 245.779 1765.16 250.252H1634.36C1637.25 259.646 1642.61 267.251 1650.41 273.066C1658.22 278.657 1667.03 281.453 1676.84 281.453C1690.45 281.453 1701.71 276.197 1710.63 265.685L1738.07 302.254C1720.89 318.581 1700.48 326.745 1676.84 326.745C1651.64 326.745 1630.34 318.134 1612.94 300.912C1595.77 283.466 1587.18 262.106 1587.18 236.832C1587.18 211.782 1595.88 190.646 1613.28 173.424C1630.68 155.978 1651.86 147.255 1676.84 147.255C1701.82 147.255 1722.9 155.978 1740.07 173.424C1757.47 190.646 1766.17 211.782 1766.17 236.832ZM1715.65 216.367C1707.4 200.487 1694.46 192.547 1676.84 192.547C1659 192.547 1645.95 200.487 1637.7 216.367H1715.65ZM1952 236.832C1952 261.883 1943.3 283.131 1925.91 300.576C1908.73 318.022 1887.66 326.745 1862.68 326.745C1837.47 326.745 1816.17 318.134 1798.78 300.912C1781.6 283.466 1773.02 262.106 1773.02 236.832V56H1818.18V158.997C1831.79 151.169 1846.62 147.255 1862.68 147.255C1887.66 147.255 1908.73 155.978 1925.91 173.424C1943.3 190.646 1952 211.782 1952 236.832ZM1906.84 236.832C1906.84 224.754 1902.49 214.354 1893.79 205.631C1885.09 196.908 1874.72 192.547 1862.68 192.547C1850.41 192.547 1839.93 196.908 1831.23 205.631C1822.53 214.13 1818.18 224.531 1818.18 236.832C1818.18 249.134 1822.53 259.646 1831.23 268.369C1839.93 277.092 1850.41 281.453 1862.68 281.453C1874.94 281.453 1885.31 277.092 1893.79 268.369C1902.49 259.646 1906.84 249.134 1906.84 236.832Z" fill="url(#paint1_linear_205_273)"/>
<mask id="mask0_205_273" style="mask-type:luminance" maskUnits="userSpaceOnUse" x="0" y="0" width="309" height="391">
<path d="M308.528 0H0V390.215H308.528V0Z" fill="white"/>
</mask>
<g mask="url(#mask0_205_273)">
<mask id="mask1_205_273" style="mask-type:alpha" maskUnits="userSpaceOnUse" x="6" y="88" width="303" height="303">
<path d="M157.637 390.2C74.3954 390.2 6.91476 322.719 6.91476 239.477C6.91476 156.236 74.3954 88.7549 157.637 88.7549C240.879 88.7549 308.359 156.236 308.359 239.477C308.359 322.719 240.879 390.2 157.637 390.2Z" fill="#D9D9D9"/>
</mask>
<g mask="url(#mask1_205_273)">
<path d="M-225.043 -57.1074H536.895V482.048H-225.043V-57.1074Z" fill="url(#paint2_linear_205_273)"/>
<path d="M225.069 -249.111L722.371 736.886L240.979 979.683L-256.323 -6.31342L225.069 -249.111Z" fill="url(#paint3_linear_205_273)"/>
<path d="M-221.37 -0.0181842L248.562 0.3125L248.419 204.04L-221.513 203.709L-221.37 -0.0181842Z" fill="url(#paint4_linear_205_273)"/>
<path d="M157.633 390.201C74.3915 390.201 6.91086 322.72 6.91086 239.478C6.91086 156.237 74.3915 88.7559 157.633 88.7559C240.875 88.7559 308.355 156.237 308.355 239.478C308.355 322.72 240.875 390.201 157.633 390.201Z" fill="url(#paint5_radial_205_273)" fill-opacity="0.7"/>
<path d="M157.633 390.201C74.3915 390.201 6.91086 322.72 6.91086 239.478C6.91086 156.237 74.3915 88.7559 157.633 88.7559C240.875 88.7559 308.355 156.237 308.355 239.478C308.355 322.72 240.875 390.201 157.633 390.201Z" fill="url(#paint6_linear_205_273)"/>
</g>
<path d="M128.775 124.245C111.045 131.337 96.2699 133.11 88.8822 133.11H62.2863L-17.501 88.7843L-30.7988 -17.5986L75.5841 -13.166L150.939 35.5928L159.804 106.515C158.327 109.47 146.506 117.153 128.775 124.245Z" fill="url(#paint7_linear_205_273)"/>
<mask id="mask2_205_273" style="mask-type:alpha" maskUnits="userSpaceOnUse" x="-31" y="-18" width="191" height="152">
<path d="M128.775 124.244C111.045 131.335 96.2699 133.109 88.8822 133.109H62.2863L-17.501 88.7824L-30.7988 -17.6006L75.5841 -13.168L150.939 35.5909L159.804 106.513C158.327 109.468 146.506 117.151 128.775 124.244Z" fill="#FF54F8"/>
</mask>
<g mask="url(#mask2_205_273)">
<path fill-rule="evenodd" clip-rule="evenodd" d="M47.5887 0.138672H0.203125V45.5067C0.203125 89.3547 35.5619 124.901 79.1792 124.901H120.494L122.1 127.577L130.966 124.252L126.565 116.183V79.5327C126.565 35.6846 91.2061 0.138672 47.5887 0.138672Z" fill="url(#paint8_linear_205_273)"/>
<path fill-rule="evenodd" clip-rule="evenodd" d="M47.5887 0.138672H0.203125V45.5067C0.203125 89.3547 35.5619 124.901 79.1792 124.901H120.494L122.1 127.577L130.966 124.252L126.565 116.183V79.5327C126.565 35.6846 91.2061 0.138672 47.5887 0.138672Z" fill="url(#paint9_linear_205_273)"/>
<path fill-rule="evenodd" clip-rule="evenodd" d="M47.5887 0.138672H0.203125V45.5067C0.203125 89.3547 35.5619 124.901 79.1792 124.901H120.494L122.1 127.577L130.966 124.252L126.565 116.183V79.5327C126.565 35.6846 91.2061 0.138672 47.5887 0.138672Z" fill="url(#paint10_linear_205_273)"/>
<path fill-rule="evenodd" clip-rule="evenodd" d="M47.5887 0.138672H0.203125V45.5067C0.203125 89.3547 35.5619 124.901 79.1792 124.901H120.494L122.1 127.577L130.966 124.252L126.565 116.183V79.5327C126.565 35.6846 91.2061 0.138672 47.5887 0.138672Z" fill="url(#paint11_linear_205_273)"/>
</g>
<path d="M128.782 124.241C111.052 131.334 96.2764 133.106 88.8887 133.106H62.293L-17.4941 106.511L40.1299 212.894L119.917 221.759L186.407 208.461L230.733 164.135L226.3 66.6172L159.811 106.511C158.333 109.466 146.513 117.149 128.782 124.241Z" fill="url(#paint12_radial_205_273)" fill-opacity="0.7"/>
</g>
<defs>
<linearGradient id="paint0_linear_205_273" x1="1972.79" y1="204.125" x2="509.67" y2="793.968" gradientUnits="userSpaceOnUse">
<stop stop-color="#FF9DCE"/>
<stop offset="0.455" stop-color="#FDCBE0"/>
<stop offset="0.86" stop-color="#D9B1FF"/>
<stop offset="1" stop-color="#9CC3FF"/>
</linearGradient>
<linearGradient id="paint1_linear_205_273" x1="1232.93" y1="-176.347" x2="1184.47" y2="183.712" gradientUnits="userSpaceOnUse">
<stop stop-color="white"/>
<stop offset="1" stop-color="white" stop-opacity="0"/>
</linearGradient>
<linearGradient id="paint2_linear_205_273" x1="301.619" y1="164.143" x2="102.152" y2="394.639" gradientUnits="userSpaceOnUse">
<stop stop-color="#FFA1B9"/>
<stop offset="0.145" stop-color="#FF7CA3"/>
<stop offset="0.625" stop-color="#ECA2FE"/>
<stop offset="1" stop-color="#40F1FF"/>
</linearGradient>
<linearGradient id="paint3_linear_205_273" x1="248.9" y1="752.072" x2="-158.734" y2="370.518" gradientUnits="userSpaceOnUse">
<stop stop-color="#C34BFF" stop-opacity="0"/>
<stop offset="0.347971" stop-color="#8A4BFF"/>
<stop offset="0.625" stop-color="#C34BFF" stop-opacity="0"/>
</linearGradient>
<linearGradient id="paint4_linear_205_273" x1="97.7148" y1="173.011" x2="54.5039" y2="21.365" gradientUnits="userSpaceOnUse">
<stop stop-color="#FF6FC8" stop-opacity="0"/>
<stop offset="0.485102" stop-color="#FF6FC8"/>
<stop offset="1" stop-color="#FF6FC8" stop-opacity="0"/>
</linearGradient>
<radialGradient id="paint5_radial_205_273" cx="0" cy="0" r="1" gradientUnits="userSpaceOnUse" gradientTransform="translate(157.633 239.5) rotate(-90) scale(155.142 155.142)">
<stop stop-color="white" stop-opacity="0"/>
<stop offset="1" stop-color="white" stop-opacity="0.35"/>
</radialGradient>
<linearGradient id="paint6_linear_205_273" x1="177.524" y1="173.01" x2="157.633" y2="84.3579" gradientUnits="userSpaceOnUse">
<stop stop-color="white" stop-opacity="0"/>
<stop offset="1" stop-color="white" stop-opacity="0.4"/>
</linearGradient>
<linearGradient id="paint7_linear_205_273" x1="115.478" y1="119.812" x2="128.775" y2="155.274" gradientUnits="userSpaceOnUse">
<stop stop-color="#FF54F8" stop-opacity="0"/>
<stop offset="1" stop-color="#FF54F8"/>
</linearGradient>
<linearGradient id="paint8_linear_205_273" x1="84.426" y1="0.138674" x2="65.5895" y2="127.578" gradientUnits="userSpaceOnUse">
<stop stop-color="#FF90B8"/>
<stop offset="1" stop-color="#FF9DBE"/>
</linearGradient>
<linearGradient id="paint9_linear_205_273" x1="79.9935" y1="48.8932" x2="96.2902" y2="159.91" gradientUnits="userSpaceOnUse">
<stop stop-color="#E970D5" stop-opacity="0"/>
<stop offset="1" stop-color="#E970D5"/>
</linearGradient>
<linearGradient id="paint10_linear_205_273" x1="62.2622" y1="35.5965" x2="-35.0712" y2="21.0426" gradientUnits="userSpaceOnUse">
<stop stop-color="#E970D5" stop-opacity="0"/>
<stop offset="1" stop-color="#E970D5"/>
</linearGradient>
<linearGradient id="paint11_linear_205_273" x1="128.754" y1="97.6479" x2="132.671" y2="137.589" gradientUnits="userSpaceOnUse">
<stop stop-color="#E970D5" stop-opacity="0"/>
<stop offset="1" stop-color="#F856C7"/>
</linearGradient>
<radialGradient id="paint12_radial_205_273" cx="0" cy="0" r="1" gradientUnits="userSpaceOnUse" gradientTransform="translate(115.484 124.241) rotate(71.5651) scale(28.0343 56.0688)">
<stop offset="0.213414" stop-color="white" stop-opacity="0.6"/>
<stop offset="1" stop-color="white" stop-opacity="0"/>
</radialGradient>
</defs>
</svg>
