<svg width="117" height="54" viewBox="0 0 117 54" fill="none" xmlns="http://www.w3.org/2000/svg">
<path d="M65.4133 13L59.7139 34.71L54.3337 13H46.9913L41.6091 34.71L35.9137 13H28L38.1911 44.624H45.1552L50.6615 24.168L56.1698 44.624H63.134L73.323 13H65.4093H65.4133ZM72.3657 39.73C72.3657 42.742 74.643 45 77.6828 45C80.7206 45 83 42.74 83 39.73C83 36.718 80.7227 34.458 77.6828 34.458C74.643 34.458 72.3657 36.718 72.3657 39.73Z" fill="white"/>
<path d="M18.8824 46.7638L18.0748 45.9508C17.9807 45.8468 17.8943 45.7348 17.8164 45.6178C18.6967 44.8868 21.1196 42.3668 21.5719 39.3345C21.7698 37.6916 21.5986 36.0249 21.0711 34.4573C20.958 34.1322 20.8288 33.8396 20.7077 33.5713L20.4573 32.8479C20.3812 32.6287 20.2922 32.4142 20.1908 32.2057C19.3868 32.5478 18.623 32.9786 17.9133 33.49C17.2313 33.9642 16.6149 34.5273 16.08 35.1645C15.4729 35.8612 15.0481 36.6994 14.8443 37.6031C14.5704 39.1983 14.7525 40.8388 15.3692 42.3338C15.1542 42.0868 14.9698 41.8138 14.8201 41.5208L13.7621 39.7166L12.6798 37.8633C12.4133 37.3349 12.276 36.9691 12.276 36.9691C13.2452 36.4976 15.87 34.8313 16.8714 32.2789C17.3673 30.8335 17.5491 29.2978 17.4045 27.7756C17.3399 27.1334 17.1864 26.5969 17.1218 26.1986C17.0981 25.9829 17.063 25.7685 17.0168 25.5565C16.2394 25.6996 15.4807 25.9314 14.7554 26.2474C14.0605 26.5404 13.4062 26.9229 12.8091 27.3854C12.16 27.8978 11.6376 28.5544 11.2826 29.3038C10.731 30.6018 10.5358 32.0251 10.7173 33.425C10.6608 33.425 10.2246 31.8806 9.7481 30.328C9.5139 29.5151 9.2635 28.7835 9.1101 28.1901L8.9324 27.1984C10.8831 26.7609 12.6235 25.6581 13.859 24.077C14.2491 23.4617 14.5509 22.794 14.7554 22.0936C14.9799 21.468 15.1343 20.8191 15.2158 20.159C15.2934 19.4703 15.2934 18.7749 15.2158 18.0862C14.514 18.0636 13.812 18.1236 13.124 18.265C11.7261 18.4945 10.4565 19.2213 9.5462 20.3135C8.8302 21.2799 8.3865 22.4228 8.2621 23.6218C8.1867 23.2802 8.1488 22.9313 8.149 22.5814C8.149 21.9555 8.0602 21.1101 8.0117 20.2728C7.9633 19.4356 7.9067 18.5983 7.8744 17.9724V16.9238C9.6382 16.9504 11.3546 16.3487 12.7202 15.2249C13.1841 14.7677 13.5714 14.2379 13.867 13.6561C14.5061 12.6125 14.9138 11.4425 15.0623 10.2258C14.4615 10.0817 13.8466 10.0054 13.229 9.9982C11.9767 9.9422 10.7455 10.337 9.7562 11.1118C9.0049 11.7693 8.4324 12.6086 8.0925 13.5504C8.0794 13.3935 8.0794 13.2358 8.0925 13.079C8.0925 12.8026 8.1975 12.4287 8.254 12.0548C8.3671 11.315 8.4882 10.5672 8.4882 10.5672C9.0902 10.0404 9.6418 9.458 10.1358 8.8277C10.8328 8.0372 11.3484 7.1019 11.6461 6.0883C11.9582 4.7558 12.0021 3.3739 11.7753 2.024C11.6634 1.3351 11.4904 0.6577 11.2584 0C10.6418 0.3021 10.0641 0.6788 9.5381 1.1217C8.3408 2.0235 7.4586 3.2843 7.0183 4.7227C6.7339 5.8355 6.6871 6.9963 6.881 8.1286C7.0816 8.9384 7.3828 9.7195 7.7775 10.4534C7.7775 10.4534 7.5191 11.9247 7.3414 13.4041L7.1799 16.3873C6.9894 15.3703 6.5966 14.4026 6.025 13.5423C5.2903 12.4708 4.2476 11.651 3.0367 11.1931C2.4605 10.9574 1.8542 10.8042 1.2357 10.7379C1.2357 10.7379 1.1953 11.0143 1.1226 11.4695C1.0335 12.0695 1.0172 12.6782 1.0742 13.2822C1.124 14.8678 1.5803 16.4134 2.3987 17.7692C2.9951 18.4641 3.7423 19.0118 4.5826 19.3698C5.4228 19.7278 6.3336 19.8866 7.2445 19.8339C7.2445 19.8339 7.3414 21.5409 7.4464 23.2479C7.7371 24.9305 8.0359 26.6132 8.0359 26.6132C7.5527 25.462 6.8377 24.4241 5.9361 23.5649C4.894 22.5323 3.554 21.8579 2.1079 21.6384C1.4121 21.5155 0.7026 21.4908 0 21.5653C0.0253 22.546 0.152601 23.5213 0.379601 24.4753C0.843201 26.2318 1.7438 27.8403 2.9963 29.1493C5.185 31.0108 7.9229 30.4174 8.8678 30.1817C8.8678 30.1817 9.3443 31.7668 9.8289 33.3437L11.1373 36.3757C10.2678 35.2027 9.2052 34.1882 7.9956 33.3762C6.5915 32.5 4.9524 32.0827 3.3032 32.1813C2.5123 32.2081 1.7292 32.3477 0.977301 32.5959C1.2765 33.6781 1.6655 34.7331 2.1402 35.7498C3.0474 37.6103 4.4441 39.1847 6.1784 40.3018C9.1262 41.8058 11.961 40.3668 12.8898 39.8629C12.8898 39.8629 13.6975 41.2528 14.5051 42.6108L16.4272 45.1548C15.1472 44.0678 13.702 43.1948 12.1468 42.5698C10.8584 42.1468 9.4962 42.0008 8.1482 42.1408C6.8002 42.2808 5.4963 42.7038 4.3208 43.3828C4.9335 44.4908 5.633 45.5478 6.4126 46.5448C7.8626 48.3768 9.8012 49.7558 12.0014 50.5198C15.6923 51.3328 18.3171 48.9998 19.1409 48.2268L19.9485 49.0398L20.7561 49.8528L21.7899 50.6658L24.5924 52.9668L25.0608 52.3078L21.2246 49.1378C20.3846 48.3408 19.5285 47.4388 18.8824 46.7638Z" fill="white"/>
<path d="M106.854 32.7747C107.04 32.1813 107.274 31.3928 107.516 30.5962C107.758 29.7996 108.009 29.0193 108.162 28.4259C108.316 27.8325 108.348 27.4098 108.348 27.4098C109.349 27.6487 110.392 27.6436 111.391 27.3947C112.39 27.1459 113.315 26.6606 114.09 25.9791C114.758 25.3335 115.291 24.5596 115.657 23.7031C115.98 22.8695 116.224 22.0066 116.384 21.1263C116.572 20.1614 116.683 19.1828 116.715 18.2C116.006 18.1751 115.297 18.2462 114.607 18.4114C113.144 18.729 111.81 19.4824 110.779 20.5736C109.996 21.5191 109.394 22.6021 109.002 23.7681C109.073 23.4175 109.11 23.061 109.115 22.7033C109.115 22.0693 109.204 21.2157 109.252 20.3622C109.301 19.5087 109.357 18.6552 109.39 18.0131L109.349 16.9482C110.246 16.9375 111.128 16.7158 111.925 16.3009C112.721 15.8859 113.41 15.2892 113.937 14.5584C114.379 13.8802 114.691 13.1248 114.857 12.3311C114.976 11.5623 115.025 10.7841 115.003 10.0063C114.981 9.1551 114.892 8.307 114.736 7.4702C114.12 7.5752 113.522 7.7667 112.959 8.0392C111.758 8.5744 110.748 9.4682 110.068 10.5997C109.598 11.5025 109.292 12.4824 109.164 13.4935C109.172 13.3365 109.172 13.1791 109.164 13.0221C109.115 12.7294 109.059 12.3555 109.002 11.9735C108.873 11.2175 108.76 10.4615 108.76 10.4615C109.153 9.7193 109.452 8.93 109.648 8.1124C109.822 6.9809 109.753 5.8251 109.446 4.7227C109.012 3.2812 108.129 2.0186 106.926 1.1217C106.403 0.68 105.828 0.3034 105.214 0C104.982 0.6581 104.806 1.3353 104.689 2.024C104.465 3.3744 104.512 4.7563 104.827 6.0883C105.125 7.1206 105.652 8.0712 106.369 8.8683C106.834 9.5083 107.358 10.1017 107.936 10.6404C107.936 10.6404 108.194 12.0873 108.364 13.5423C108.534 14.9973 108.518 16.4686 108.518 16.4686C108.24 15.5183 107.745 14.6468 107.072 13.9243C106.114 13.0805 104.888 12.6079 103.615 12.5912C102.997 12.555 102.376 12.5904 101.766 12.6969C101.784 12.877 101.811 13.0561 101.846 13.2334C101.919 13.5586 102.04 14.0463 102.145 14.534C102.402 15.7685 103.001 16.9045 103.874 17.8098C105.122 19.0133 106.759 19.7233 108.485 19.8095C108.485 19.8095 108.38 21.484 108.283 23.1666L107.702 26.4669C107.662 25.2837 107.334 24.1283 106.749 23.1016C105.853 21.9523 104.593 21.1463 103.179 20.8174C102.499 20.6289 101.8 20.5225 101.095 20.5004C101.042 21.193 101.042 21.8887 101.095 22.5814C101.062 23.9894 101.439 25.3765 102.178 26.5725C103.295 28.2296 104.952 29.4426 106.862 30.0028C106.862 30.0028 106.393 31.5554 105.917 33.108L104.6 36.0668C104.939 34.7053 104.866 33.2731 104.391 31.9537C103.703 30.492 102.528 29.3187 101.071 28.6372C100.372 28.2825 99.6351 28.0098 98.8741 27.8243C98.6281 28.5361 98.4701 29.2761 98.4061 30.0272C98.0771 31.5296 98.1551 33.0933 98.6321 34.5549C99.4371 36.6418 100.924 38.3906 102.848 39.5133C102.848 39.5133 102.081 40.8788 101.233 42.2038L99.3431 44.6998C99.9491 43.2688 100.578 41.7158 100.207 40.0417C99.8431 38.3141 98.8821 36.7727 97.4931 35.6929C96.8221 35.1413 96.0941 34.6644 95.3211 34.2704C94.8871 34.9504 94.5401 35.6822 94.2871 36.4488C94.1011 37.1479 93.7621 37.8226 93.6011 38.6355C93.4081 39.5078 93.3671 40.4068 93.4791 41.2938C93.6971 44.2848 95.9021 46.9428 96.7101 47.7478L95.9431 48.5608L95.1351 49.3738L94.1261 50.1858L91.3711 52.4378L91.8401 53.0968C91.8401 53.0968 93.8191 51.4708 95.7571 49.8448L98.1801 47.3248L98.9871 46.5118C99.1651 46.3088 99.2621 46.1708 99.2621 46.1708C100.159 46.8938 102.88 49.0238 106.458 47.8938C108.711 47.2678 110.496 45.2848 111.788 43.5778C112.111 43.1468 112.402 42.7648 112.661 42.3498C112.919 41.9358 113.056 41.5858 113.202 41.2858C113.501 40.6678 113.654 40.2858 113.654 40.2858C112.871 39.8964 112.036 39.6226 111.175 39.4727C110.356 39.311 109.519 39.2591 108.687 39.3183C107.705 39.4097 106.74 39.6368 105.82 39.9929C104.304 40.6878 102.933 41.6668 101.782 42.8788C101.993 42.6278 102.177 42.3548 102.331 42.0658C102.638 41.5538 103.034 40.8628 103.438 40.1718C103.841 39.4808 104.245 38.798 104.544 38.2778C104.843 37.7576 104.964 37.3755 104.964 37.3755C105.941 37.8145 108.776 39.0012 111.627 37.3267C113.468 36.3188 114.591 34.2541 115.382 32.5146C115.708 31.7886 115.978 31.0386 116.19 30.2711C116.319 29.6777 116.368 29.32 116.368 29.32C115.606 29.1234 114.82 29.0358 114.034 29.0599C113.281 29.08 112.535 29.1975 111.813 29.4094C110.947 29.6492 110.128 30.0339 109.39 30.5474C108.225 31.4249 107.25 32.531 106.523 33.7989L106.636 33.5388C106.692 33.3193 106.765 33.0673 106.854 32.7747Z" fill="white"/>
</svg>
