<svg width="53" height="171" viewBox="0 0 53 171" fill="none" xmlns="http://www.w3.org/2000/svg">
<g clip-path="url(#clip0_1084_229)">
<rect width="171" height="53" transform="matrix(0 -1 1 0 0 171)" fill="white"/>
<path d="M20.2 152.88V151.06H23.924V147.14H20.2V145.32H30V147.14H25.604V151.06H30V152.88H20.2ZM29.636 141.663C29.328 142.209 28.894 142.629 28.334 142.909C27.788 143.189 27.172 143.329 26.472 143.329C25.786 143.329 25.17 143.189 24.61 142.909C24.064 142.629 23.63 142.209 23.308 141.663C23 141.131 22.832 140.487 22.832 139.745C22.832 139.017 23 138.373 23.308 137.827C23.63 137.295 24.064 136.875 24.61 136.595C25.17 136.315 25.786 136.161 26.472 136.161C27.172 136.161 27.788 136.315 28.334 136.595C28.894 136.875 29.328 137.295 29.636 137.827C29.958 138.373 30.112 139.017 30.112 139.745C30.112 140.487 29.958 141.131 29.636 141.663ZM28.012 138.457C27.592 138.149 27.088 137.981 26.472 137.981C25.87 137.981 25.366 138.149 24.946 138.457C24.526 138.779 24.316 139.213 24.316 139.745C24.316 140.291 24.526 140.725 24.946 141.033C25.366 141.355 25.87 141.509 26.472 141.509C27.088 141.509 27.592 141.355 28.012 141.033C28.432 140.725 28.628 140.291 28.628 139.745C28.628 139.213 28.432 138.779 28.012 138.457ZM22.944 134.317V132.581H24.078C23.7 132.315 23.392 131.993 23.168 131.615C22.944 131.251 22.832 130.845 22.832 130.397C22.832 129.753 23.014 129.221 23.378 128.829C23.742 128.437 24.274 128.227 24.96 128.227H30V129.963H25.478C25.086 129.963 24.792 130.061 24.596 130.243C24.414 130.425 24.316 130.663 24.316 130.971C24.316 131.265 24.428 131.531 24.652 131.769C24.876 132.021 25.212 132.217 25.646 132.357C26.08 132.511 26.598 132.581 27.186 132.581H30V134.317H22.944ZM29.636 124.711C29.328 125.257 28.894 125.677 28.334 125.957C27.788 126.237 27.172 126.377 26.472 126.377C25.786 126.377 25.17 126.237 24.61 125.957C24.064 125.677 23.63 125.257 23.308 124.711C23 124.179 22.832 123.535 22.832 122.793C22.832 122.065 23 121.421 23.308 120.875C23.63 120.343 24.064 119.923 24.61 119.643C25.17 119.363 25.786 119.209 26.472 119.209C27.172 119.209 27.788 119.363 28.334 119.643C28.894 119.923 29.328 120.343 29.636 120.875C29.958 121.421 30.112 122.065 30.112 122.793C30.112 123.535 29.958 124.179 29.636 124.711ZM28.012 121.505C27.592 121.197 27.088 121.029 26.472 121.029C25.87 121.029 25.366 121.197 24.946 121.505C24.526 121.827 24.316 122.261 24.316 122.793C24.316 123.339 24.526 123.773 24.946 124.081C25.366 124.403 25.87 124.557 26.472 124.557C27.088 124.557 27.592 124.403 28.012 124.081C28.432 123.773 28.628 123.339 28.628 122.793C28.628 122.261 28.432 121.827 28.012 121.505ZM22.944 117.365V115.629H24.092C23.7 115.377 23.392 115.069 23.168 114.705C22.944 114.341 22.832 113.963 22.832 113.543C22.832 113.291 22.888 112.997 22.972 112.689L24.582 113.011C24.456 113.235 24.386 113.473 24.386 113.739C24.386 114.299 24.638 114.747 25.142 115.097C25.646 115.461 26.43 115.629 27.494 115.629H30V117.365H22.944ZM29.552 111.045C29.188 111.535 28.74 111.857 28.208 112.011L27.466 110.625C27.83 110.499 28.124 110.317 28.32 110.079C28.53 109.841 28.628 109.561 28.628 109.225C28.628 108.973 28.586 108.763 28.474 108.595C28.362 108.427 28.194 108.343 27.942 108.343C27.732 108.343 27.564 108.455 27.424 108.651C27.284 108.847 27.144 109.155 26.99 109.575C26.976 109.645 26.934 109.743 26.878 109.869C26.668 110.415 26.402 110.835 26.066 111.129C25.744 111.437 25.324 111.577 24.806 111.577C24.442 111.577 24.12 111.479 23.812 111.283C23.518 111.087 23.28 110.821 23.098 110.485C22.93 110.149 22.832 109.757 22.832 109.323C22.832 108.847 22.944 108.413 23.14 108.021C23.336 107.629 23.616 107.335 23.98 107.111L24.932 108.147C24.526 108.427 24.316 108.805 24.316 109.281C24.316 109.477 24.372 109.631 24.47 109.771C24.568 109.911 24.694 109.967 24.848 109.967C25.016 109.967 25.184 109.869 25.324 109.673C25.464 109.477 25.646 109.099 25.842 108.525C26.038 107.993 26.304 107.573 26.612 107.279C26.934 106.985 27.34 106.831 27.83 106.831C28.53 106.831 29.076 107.055 29.496 107.489C29.916 107.937 30.112 108.511 30.112 109.211C30.112 109.939 29.93 110.555 29.552 111.045Z" fill="black"/>
<path d="M14.341 16.376H18.216L21.006 27.102L23.641 16.376H27.237L29.872 27.102L32.662 16.376H36.537L31.546 32H28.136L25.439 21.894L22.742 32H19.332L14.341 16.376ZM36.2047 31.442C35.7087 30.946 35.4607 30.326 35.4607 29.582C35.4607 28.838 35.7087 28.218 36.2047 27.722C36.7007 27.226 37.3207 26.978 38.0647 26.978C38.8087 26.978 39.4287 27.226 39.9247 27.722C40.4207 28.218 40.6687 28.838 40.6687 29.582C40.6687 30.326 40.4207 30.946 39.9247 31.442C39.4287 31.938 38.8087 32.186 38.0647 32.186C37.3207 32.186 36.7007 31.938 36.2047 31.442Z" fill="black"/>
</g>
<defs>
<clipPath id="clip0_1084_229">
<rect width="171" height="53" fill="white" transform="matrix(0 -1 1 0 0 171)"/>
</clipPath>
</defs>
</svg>
