<svg xmlns="http://www.w3.org/2000/svg" viewBox="0 0 1200 630" role="img" aria-label="Calray AI by Hitesh Kasalya">
  <defs>
    <linearGradient id="bg" x1="112" y1="72" x2="1092" y2="560" gradientUnits="userSpaceOnUse">
      <stop offset="0" stop-color="#f8fbff" />
      <stop offset="0.42" stop-color="#eef4ff" />
      <stop offset="1" stop-color="#f5f8f4" />
    </linearGradient>
    <linearGradient id="accent" x1="184" y1="144" x2="1016" y2="510" gradientUnits="userSpaceOnUse">
      <stop offset="0" stop-color="#2f6fed" />
      <stop offset="0.55" stop-color="#7c5cff" />
      <stop offset="1" stop-color="#c4b5fd" />
    </linearGradient>
    <filter id="shadow" x="-20%" y="-20%" width="140%" height="140%">
      <feDropShadow dx="0" dy="30" stdDeviation="35" flood-color="#102235" flood-opacity="0.16" />
    </filter>
  </defs>

  <rect width="1200" height="630" rx="56" fill="url(#bg)" />
  <circle cx="220" cy="120" r="150" fill="#2f6fed" opacity=".12" />
  <circle cx="1040" cy="100" r="170" fill="#7c5cff" opacity=".12" />
  <circle cx="950" cy="520" r="180" fill="#10b981" opacity=".08" />
  <path d="M128 508h944" stroke="#dbeafe" stroke-width="2" stroke-dasharray="10 14" opacity=".6" />

  <g filter="url(#shadow)">
    <rect x="92" y="92" width="1016" height="446" rx="42" fill="#ffffff" opacity=".82" />
  </g>

  <g transform="translate(162 160)">
    <circle cx="72" cy="72" r="72" fill="url(#accent)" />
    <circle cx="72" cy="72" r="52" fill="white" opacity=".18" />
    <path
      d="M48 103V41h25c12 0 22 7 22 20 0 9-4 14-11 18l15 24H84L71 82h-7v21H48zm14-33h10c5 0 8-2 8-7s-3-7-8-7H62v14z"
      fill="#fff"
    />
  </g>

  <text x="338" y="215" fill="#102235" font-family="Space Grotesk, Arial, sans-serif" font-size="78" font-weight="700">
    Calray AI
  </text>
  <text x="338" y="286" fill="#2f6fed" font-family="Manrope, Arial, sans-serif" font-size="34" font-weight="700">
    by Hitesh Kasalya
  </text>
  <text x="338" y="350" fill="#66768c" font-family="Manrope, Arial, sans-serif" font-size="30" font-weight="500">
    AI calorie tracker and fitness coach
  </text>
  <text x="338" y="402" fill="#66768c" font-family="Manrope, Arial, sans-serif" font-size="24">
    Meal scans, barcode lookup, favorites, custom foods, and workouts.
  </text>

  <g transform="translate(338 438)">
    <rect width="168" height="44" rx="22" fill="#102235" />
    <text x="84" y="29" text-anchor="middle" fill="#ffffff" font-family="Manrope, Arial, sans-serif" font-size="20" font-weight="700">
      Official site
    </text>
  </g>
</svg>
